<svg width="128" height="128" viewBox="0 0 128 128" xmlns="http://www.w3.org/2000/svg">
  <defs>
    <linearGradient id="mapGradient" x1="0%" y1="0%" x2="100%" y2="100%">
      <stop offset="0%" style="stop-color:#4285f4;stop-opacity:1" />
      <stop offset="100%" style="stop-color:#1a73e8;stop-opacity:1" />
    </linearGradient>
    <linearGradient id="pinGradient" x1="0%" y1="0%" x2="100%" y2="100%">
      <stop offset="0%" style="stop-color:#ea4335;stop-opacity:1" />
      <stop offset="100%" style="stop-color:#d33b2c;stop-opacity:1" />
    </linearGradient>
  </defs>
  
  <!-- Background circle -->
  <circle cx="64" cy="64" r="58" fill="url(#mapGradient)" stroke="#ffffff" stroke-width="4"/>
  
  <!-- Map pin -->
  <path d="M64 20 C54 20 46 28 46 38 C46 52 64 78 64 78 S82 52 82 38 C82 28 74 20 64 20 Z" fill="url(#pinGradient)" stroke="#ffffff" stroke-width="2"/>
  
  <!-- Pin center dot -->
  <circle cx="64" cy="38" r="8" fill="#ffffff"/>
  
  <!-- Navigation arrows -->
  <path d="M34 92 L40 86 L34 80 M48 92 L42 86 L48 80" stroke="#ffffff" stroke-width="3" fill="none" stroke-linecap="round"/>
  <path d="M94 92 L88 86 L94 80 M80 92 L86 86 L80 80" stroke="#ffffff" stroke-width="3" fill="none" stroke-linecap="round"/>
</svg>